<svg xmlns="http://www.w3.org/2000/svg" width="20.03" height="20" viewBox="0 0 20.03 20">
  <metadata><?xpacket begin="﻿" id="W5M0MpCehiHzreSzNTczkc9d"?>
<x:xmpmeta xmlns:x="adobe:ns:meta/" x:xmptk="Adobe XMP Core 5.6-c138 79.159824, 2016/09/14-01:09:01        ">
   <rdf:RDF xmlns:rdf="http://www.w3.org/1999/02/22-rdf-syntax-ns#">
      <rdf:Description rdf:about=""/>
   </rdf:RDF>
</x:xmpmeta>
                                                                                                    
                                                                                                    
                                                                                                    
                                                                                                    
                                                                                                    
                                                                                                    
                                                                                                    
                                                                                                    
                                                                                                    
                                                                                                    
                                                                                                    
                                                                                                    
                                                                                                    
                                                                                                    
                                                                                                    
                                                                                                    
                                                                                                    
                                                                                                    
                                                                                                    
                                                                                                    
                           
<?xpacket end="w"?></metadata>
<defs>
    <style>
      .cls-1 {
        fill: #4e67af;
        fill-rule: evenodd;
      }
    </style>
  </defs>
  <path class="cls-1" d="M1440.4,10081h-4.07a1.354,1.354,0,0,1-1.34-1.4v-4a2.746,2.746,0,0,1,.77-1.9l12.05-12a2.441,2.441,0,0,1,3.37,0l3.13,3.1a2.42,2.42,0,0,1,0,3.4l-12.05,12A2.622,2.622,0,0,1,1440.4,10081Zm-2.72-2h2.14a1.964,1.964,0,0,0,1.44-.6l7.75-7.7a0.956,0.956,0,0,0,0-1.3l-2.45-2.4a0.77,0.77,0,0,0-1.22,0l-7.76,7.7a2.108,2.108,0,0,0-.59,1.5v2.1A0.687,0.687,0,0,0,1437.68,10079Zm10.35-13.4,2.34,2.4a1.1,1.1,0,0,0,1.33,0l0.8-.8a1.022,1.022,0,0,0,0-1.4l-2.34-2.3a0.887,0.887,0,0,0-1.33,0l-0.8.8A0.9,0.9,0,0,0,1448.03,10065.6Z" transform="translate(-1435 -10061)"/>
</svg>
